<svg height="512" viewBox="0 0 256 256" width="512" xmlns="http://www.w3.org/2000/svg"><rect fill="#cecece" height="151.106" rx="13.665" width="219.26" x="18.37" y="48.19"/><path d="m28.37 185.631v-123.776a13.681 13.681 0 0 1 13.665-13.665h-10a13.681 13.681 0 0 0 -13.665 13.665v123.776a13.681 13.681 0 0 0 13.665 13.669h10a13.681 13.681 0 0 1 -13.665-13.669z" fill="#afafaf"/><path d="m227.63 185.631v-123.776a13.681 13.681 0 0 0 -13.665-13.665h10a13.681 13.681 0 0 1 13.665 13.665v123.776a13.681 13.681 0 0 1 -13.665 13.669h-10a13.681 13.681 0 0 0 13.665-13.669z" fill="#e2e2e2"/><rect fill="#63bce7" height="122.288" rx="5.256" width="202.442" x="26.779" y="56.599"/><path d="m36.779 173.631v-111.777a5.271 5.271 0 0 1 5.256-5.254h-10a5.271 5.271 0 0 0 -5.256 5.256v111.775a5.271 5.271 0 0 0 5.256 5.256h10a5.271 5.271 0 0 1 -5.256-5.256z" fill="#6377e7"/><path d="m219.221 173.631v-111.777a5.271 5.271 0 0 0 -5.256-5.256h10a5.271 5.271 0 0 1 5.256 5.256v111.777a5.271 5.271 0 0 1 -5.256 5.256h-10a5.271 5.271 0 0 0 5.256-5.256z" fill="#63e2e7"/><path d="m89.809 221.454h76.383v9.197h-76.383z" fill="#9e9e9e"/><path d="m89.809 221.454h10v9.197h-10z" fill="#707070"/><path d="m100.67 199.296h54.659v22.158h-54.659z" fill="#cecece"/><path d="m100.67 199.296h10v22.158h-10z" fill="#afafaf"/><circle cx="128" cy="189.091" fill="#9e9e9e" r="4.5"/><circle cx="128" cy="94.001" fill="#f8af23" r="68.25"/><path d="m69.75 94a68.24 68.24 0 0 1 63.25-68.047c-1.653-.12-3.316-.2-5-.2a68.25 68.25 0 1 0 0 136.5c1.684 0 3.347-.082 5-.2a68.24 68.24 0 0 1 -63.25-68.053z" fill="#f87023"/><path d="m186.25 94a68.24 68.24 0 0 0 -63.25-68.047c1.653-.12 3.316-.2 5-.2a68.25 68.25 0 1 1 0 136.5c-1.684 0-3.347-.082-5-.2a68.24 68.24 0 0 0 63.25-68.053z" fill="#f8d323"/><rect fill="#9e9e9e" height="63.916" rx="22.917" width="45.833" x="105.083" y="67.85"/><g fill="#3f3679"><circle cx="120.514" cy="78.414" r="1.712"/><circle cx="135.486" cy="78.414" r="1.712"/><path d="m128 195.091a6 6 0 1 0 -6-6 6.007 6.007 0 0 0 6 6zm0-9a3 3 0 1 1 -3 3 3 3 0 0 1 3-3z"/><path d="m27.323 240.124h-18a1.5 1.5 0 1 0 0 3h18a1.5 1.5 0 0 0 0-3z"/><path d="m246.68 240.124h-18a1.5 1.5 0 1 0 0 3h18a1.5 1.5 0 0 0 0-3z"/><path d="m218.479 240.124h-180.958a1.5 1.5 0 1 0 0 3h180.958a1.5 1.5 0 1 0 0-3z"/><path d="m9.32 232.151h237.36a1.5 1.5 0 0 0 0-3h-78.989v-7.7a1.5 1.5 0 0 0 -1.5-1.5h-9.361v-19.151h67.136a15.182 15.182 0 0 0 15.165-15.165v-123.781a15.182 15.182 0 0 0 -15.166-15.164h-44.773a69.562 69.562 0 0 0 -49.692-22.4v-9.914a1.5 1.5 0 1 0 -3 0v9.913a69.562 69.562 0 0 0 -49.7 22.411c-.037 0-.072-.011-.11-.011h-44.655a15.182 15.182 0 0 0 -15.165 15.165v123.777a15.182 15.182 0 0 0 15.165 15.169h67.135v19.158h-9.361a1.5 1.5 0 0 0 -1.5 1.5v7.7h-78.989a1.5 1.5 0 1 0 0 3zm117.18-204.862v9.837a1.5 1.5 0 0 0 3 0v-9.837a66.8 66.8 0 0 1 65.212 65.211h-9.837a1.5 1.5 0 0 0 0 3h9.837a66.8 66.8 0 0 1 -65.212 65.213v-9.837a1.5 1.5 0 0 0 -3 0v9.837a66.8 66.8 0 0 1 -65.212-65.213h9.837a1.5 1.5 0 0 0 0-3h-9.837a66.8 66.8 0 0 1 65.212-65.211zm-78.125 65.211a1.5 1.5 0 0 0 0 3h9.913a69.806 69.806 0 0 0 68.212 68.213v9.913a1.5 1.5 0 0 0 3 0v-9.913a69.806 69.806 0 0 0 68.212-68.213h9.913a1.5 1.5 0 0 0 0-3h-9.913a69.3 69.3 0 0 0 -9.937-34.4h36.19a3.76 3.76 0 0 1 3.756 3.756v111.775a3.76 3.76 0 0 1 -3.756 3.756h-191.93a3.76 3.76 0 0 1 -3.756-3.756v-111.777a3.76 3.76 0 0 1 3.756-3.754h36.19a69.3 69.3 0 0 0 -9.937 34.4zm-28.505 93.131v-123.777a12.178 12.178 0 0 1 12.165-12.164h42.138q-2.146 2.6-4.039 5.409h-38.1a6.764 6.764 0 0 0 -6.756 6.756v111.776a6.764 6.764 0 0 0 6.756 6.756h191.931a6.764 6.764 0 0 0 6.756-6.756v-111.777a6.764 6.764 0 0 0 -6.756-6.756h-38.1q-1.891-2.8-4.039-5.409h42.138a12.178 12.178 0 0 1 12.166 12.165v123.777a12.179 12.179 0 0 1 -12.165 12.169h-191.93a12.179 12.179 0 0 1 -12.165-12.169zm82.3 15.165h51.66v19.158h-51.66zm-10.861 22.158h73.383v6.2h-73.383z"/><path d="m95.613 125.756-4.226 4.513a1.5 1.5 0 1 0 2.189 2.051l4.227-4.514a11.957 11.957 0 0 1 4.229-2.915l5.741-2.38a24.4 24.4 0 0 0 40.462-.013l5.737 2.4a12.118 12.118 0 0 1 4.224 2.913l4.226 4.513a1.5 1.5 0 1 0 2.19-2.051l-4.226-4.513a14.928 14.928 0 0 0 -5.268-3.635l-5.352-2.235a24.257 24.257 0 0 0 2.648-11.038v-7.542h10.986a1.5 1.5 0 0 0 0-3h-10.983v-7.543a24.548 24.548 0 0 0 -.159-2.746l2.853-1.169a14.946 14.946 0 0 0 5.277-3.638l4.226-4.513a1.5 1.5 0 1 0 -2.19-2.051l-4.224 4.514a12.123 12.123 0 0 1 -4.224 2.912l-2.254.924a24.5 24.5 0 0 0 -11.822-15.542c.963-2.507 3.284-8.469 4.927-12.678a1.5 1.5 0 0 0 -2.795-1.091l-2.711 6.959c-.677 1.741-1.354 3.483-1.858 4.79-.1.263-.187.486-.273.713a24.341 24.341 0 0 0 -18.353-.011c-.085-.223-.169-.442-.269-.7-.5-1.307-1.181-3.049-1.858-4.79l-2.71-6.96a1.5 1.5 0 0 0 -2.795 1.091c1.64 4.2 3.954 10.146 4.921 12.662a24.5 24.5 0 0 0 -11.848 15.557l-2.251-.923a11.947 11.947 0 0 1 -4.227-2.914l-4.224-4.513a1.5 1.5 0 0 0 -2.189 2.05l4.226 4.513a14.937 14.937 0 0 0 5.277 3.639l2.853 1.169a24.548 24.548 0 0 0 -.159 2.746v7.541h-10.984a1.5 1.5 0 0 0 0 3h10.988v7.542a24.258 24.258 0 0 0 2.655 11.051l-5.349 2.218a14.936 14.936 0 0 0 -5.281 3.637zm10.971-16.907v-18.082c0-.49.041-.971.074-1.453h19.842v40.876a21.428 21.428 0 0 1 -19.917-21.34zm22.916 21.341v-40.876h19.843c.033.482.074.963.074 1.453v18.083a21.428 21.428 0 0 1 -19.917 21.34zm-1.5-60.839a21.449 21.449 0 0 1 20.944 16.963h-41.888a21.449 21.449 0 0 1 20.944-16.963z"/></g></svg>