<?xml version="1.0" encoding="UTF-8" standalone="no"?><svg xmlns="http://www.w3.org/2000/svg" xmlns:xlink="http://www.w3.org/1999/xlink" contentScriptType="application/ecmascript" contentStyleType="text/css" height="675px" preserveAspectRatio="none" style="width:889px;height:675px;" version="1.1" viewBox="0 0 889 675" width="889px" zoomAndPan="magnify"><defs><filter height="300%" id="f4dt2urpq9h0r" width="300%" x="-1" y="-1"><feGaussianBlur result="blurOut" stdDeviation="2.0"/><feColorMatrix in="blurOut" result="blurOut2" type="matrix" values="0 0 0 0 0 0 0 0 0 0 0 0 0 0 0 0 0 0 .4 0"/><feOffset dx="4.0" dy="4.0" in="blurOut2" result="blurOut3"/><feBlend in="SourceGraphic" in2="blurOut3" mode="normal"/></filter></defs><g><!--MD5=[3fd616f346a44cd59a91eb10b19e157c]
class User--><rect codeLine="3" fill="#FEFECE" filter="url(#f4dt2urpq9h0r)" height="86.4141" id="User" style="stroke:#A80036;stroke-width:1.5;" width="66" x="654.5" y="152.9531"/><ellipse cx="671.75" cy="168.9531" fill="#ADD1B2" rx="11" ry="11" style="stroke:#A80036;stroke-width:1.0;"/><path d="M674.0938,164.625 C673.1563,164.1875 672.5625,164.0469 671.6875,164.0469 C669.0625,164.0469 667.0625,166.125 667.0625,168.8438 L667.0625,169.9688 C667.0625,172.5469 669.1719,174.4375 672.0625,174.4375 C673.2813,174.4375 674.4375,174.1406 675.1875,173.5938 C675.7656,173.1875 676.0938,172.7344 676.0938,172.3438 C676.0938,171.8906 675.7031,171.5 675.2344,171.5 C675.0156,171.5 674.8125,171.5781 674.625,171.7656 C674.1719,172.25 674.1719,172.25 673.9844,172.3438 C673.5625,172.6094 672.875,172.7344 672.1094,172.7344 C670.0625,172.7344 668.7656,171.6406 668.7656,169.9375 L668.7656,168.8438 C668.7656,167.0625 670.0156,165.75 671.75,165.75 C672.3281,165.75 672.9375,165.9063 673.4063,166.1563 C673.8906,166.4375 674.0625,166.6563 674.1563,167.0625 C674.2188,167.4688 674.25,167.5938 674.3906,167.7188 C674.5313,167.8594 674.7656,167.9688 674.9844,167.9688 C675.25,167.9688 675.5156,167.8281 675.6875,167.6094 C675.7969,167.4531 675.8281,167.2656 675.8281,166.8438 L675.8281,165.4219 C675.8281,164.9844 675.8125,164.8594 675.7188,164.7031 C675.5625,164.4375 675.2813,164.2969 674.9844,164.2969 C674.6875,164.2969 674.4844,164.3906 674.2656,164.7031 L674.0938,164.625 Z " fill="#000000"/><text fill="#000000" font-family="sans-serif" font-size="12" lengthAdjust="spacing" textLength="29" x="686.25" y="173.1074">User</text><line style="stroke:#A80036;stroke-width:1.5;" x1="655.5" x2="719.5" y1="184.9531" y2="184.9531"/><text fill="#000000" font-family="sans-serif" font-size="11" lengthAdjust="spacing" textLength="42" x="660.5" y="199.1636">pseudo</text><text fill="#000000" font-family="sans-serif" font-size="11" lengthAdjust="spacing" textLength="33" x="660.5" y="211.9683">name</text><text fill="#000000" font-family="sans-serif" font-size="11" lengthAdjust="spacing" textLength="54" x="660.5" y="224.7729">firstname</text><line style="stroke:#A80036;stroke-width:1.5;" x1="655.5" x2="719.5" y1="231.3672" y2="231.3672"/><!--MD5=[f9a29335b499db729be669fd1bd54958]
class Account--><rect codeLine="9" fill="#FEFECE" filter="url(#f4dt2urpq9h0r)" height="86.4141" id="Account" style="stroke:#A80036;stroke-width:1.5;" width="80" x="516.5" y="299.9531"/><ellipse cx="531.5" cy="315.9531" fill="#ADD1B2" rx="11" ry="11" style="stroke:#A80036;stroke-width:1.0;"/><path d="M533.8438,311.625 C532.9063,311.1875 532.3125,311.0469 531.4375,311.0469 C528.8125,311.0469 526.8125,313.125 526.8125,315.8438 L526.8125,316.9688 C526.8125,319.5469 528.9219,321.4375 531.8125,321.4375 C533.0313,321.4375 534.1875,321.1406 534.9375,320.5938 C535.5156,320.1875 535.8438,319.7344 535.8438,319.3438 C535.8438,318.8906 535.4531,318.5 534.9844,318.5 C534.7656,318.5 534.5625,318.5781 534.375,318.7656 C533.9219,319.25 533.9219,319.25 533.7344,319.3438 C533.3125,319.6094 532.625,319.7344 531.8594,319.7344 C529.8125,319.7344 528.5156,318.6406 528.5156,316.9375 L528.5156,315.8438 C528.5156,314.0625 529.7656,312.75 531.5,312.75 C532.0781,312.75 532.6875,312.9063 533.1563,313.1563 C533.6406,313.4375 533.8125,313.6563 533.9063,314.0625 C533.9688,314.4688 534,314.5938 534.1406,314.7188 C534.2813,314.8594 534.5156,314.9688 534.7344,314.9688 C535,314.9688 535.2656,314.8281 535.4375,314.6094 C535.5469,314.4531 535.5781,314.2656 535.5781,313.8438 L535.5781,312.4219 C535.5781,311.9844 535.5625,311.8594 535.4688,311.7031 C535.3125,311.4375 535.0313,311.2969 534.7344,311.2969 C534.4375,311.2969 534.2344,311.3906 534.0156,311.7031 L533.8438,311.625 Z " fill="#000000"/><text fill="#000000" font-family="sans-serif" font-size="12" lengthAdjust="spacing" textLength="48" x="545.5" y="320.1074">Account</text><line style="stroke:#A80036;stroke-width:1.5;" x1="517.5" x2="595.5" y1="331.9531" y2="331.9531"/><text fill="#000000" font-family="sans-serif" font-size="11" lengthAdjust="spacing" textLength="24" x="522.5" y="346.1636">mail</text><text fill="#000000" font-family="sans-serif" font-size="11" lengthAdjust="spacing" textLength="53" x="522.5" y="358.9683">password</text><text fill="#000000" font-family="sans-serif" font-size="11" lengthAdjust="spacing" textLength="40" x="522.5" y="371.7729">enable</text><line style="stroke:#A80036;stroke-width:1.5;" x1="517.5" x2="595.5" y1="378.3672" y2="378.3672"/><!--MD5=[1a95835255177050dd8028a7da1b3a6a]
class Contributor--><rect codeLine="15" fill="#FEFECE" filter="url(#f4dt2urpq9h0r)" height="48" id="Contributor" style="stroke:#A80036;stroke-width:1.5;" width="99" x="395" y="27.9531"/><ellipse cx="410" cy="43.9531" fill="#ADD1B2" rx="11" ry="11" style="stroke:#A80036;stroke-width:1.0;"/><path d="M412.3438,39.625 C411.4063,39.1875 410.8125,39.0469 409.9375,39.0469 C407.3125,39.0469 405.3125,41.125 405.3125,43.8438 L405.3125,44.9688 C405.3125,47.5469 407.4219,49.4375 410.3125,49.4375 C411.5313,49.4375 412.6875,49.1406 413.4375,48.5938 C414.0156,48.1875 414.3438,47.7344 414.3438,47.3438 C414.3438,46.8906 413.9531,46.5 413.4844,46.5 C413.2656,46.5 413.0625,46.5781 412.875,46.7656 C412.4219,47.25 412.4219,47.25 412.2344,47.3438 C411.8125,47.6094 411.125,47.7344 410.3594,47.7344 C408.3125,47.7344 407.0156,46.6406 407.0156,44.9375 L407.0156,43.8438 C407.0156,42.0625 408.2656,40.75 410,40.75 C410.5781,40.75 411.1875,40.9063 411.6563,41.1563 C412.1406,41.4375 412.3125,41.6563 412.4063,42.0625 C412.4688,42.4688 412.5,42.5938 412.6406,42.7188 C412.7813,42.8594 413.0156,42.9688 413.2344,42.9688 C413.5,42.9688 413.7656,42.8281 413.9375,42.6094 C414.0469,42.4531 414.0781,42.2656 414.0781,41.8438 L414.0781,40.4219 C414.0781,39.9844 414.0625,39.8594 413.9688,39.7031 C413.8125,39.4375 413.5313,39.2969 413.2344,39.2969 C412.9375,39.2969 412.7344,39.3906 412.5156,39.7031 L412.3438,39.625 Z " fill="#000000"/><text fill="#000000" font-family="sans-serif" font-size="12" lengthAdjust="spacing" textLength="67" x="424" y="48.1074">Contributor</text><line style="stroke:#A80036;stroke-width:1.5;" x1="396" x2="493" y1="59.9531" y2="59.9531"/><line style="stroke:#A80036;stroke-width:1.5;" x1="396" x2="493" y1="67.9531" y2="67.9531"/><!--MD5=[da547346deef918ea16944ba046651ef]
class Administrator--><rect codeLine="17" fill="#FEFECE" filter="url(#f4dt2urpq9h0r)" height="48" id="Administrator" style="stroke:#A80036;stroke-width:1.5;" width="112" x="631.5" y="318.9531"/><ellipse cx="646.5" cy="334.9531" fill="#ADD1B2" rx="11" ry="11" style="stroke:#A80036;stroke-width:1.0;"/><path d="M648.8438,330.625 C647.9063,330.1875 647.3125,330.0469 646.4375,330.0469 C643.8125,330.0469 641.8125,332.125 641.8125,334.8438 L641.8125,335.9688 C641.8125,338.5469 643.9219,340.4375 646.8125,340.4375 C648.0313,340.4375 649.1875,340.1406 649.9375,339.5938 C650.5156,339.1875 650.8438,338.7344 650.8438,338.3438 C650.8438,337.8906 650.4531,337.5 649.9844,337.5 C649.7656,337.5 649.5625,337.5781 649.375,337.7656 C648.9219,338.25 648.9219,338.25 648.7344,338.3438 C648.3125,338.6094 647.625,338.7344 646.8594,338.7344 C644.8125,338.7344 643.5156,337.6406 643.5156,335.9375 L643.5156,334.8438 C643.5156,333.0625 644.7656,331.75 646.5,331.75 C647.0781,331.75 647.6875,331.9063 648.1563,332.1563 C648.6406,332.4375 648.8125,332.6563 648.9063,333.0625 C648.9688,333.4688 649,333.5938 649.1406,333.7188 C649.2813,333.8594 649.5156,333.9688 649.7344,333.9688 C650,333.9688 650.2656,333.8281 650.4375,333.6094 C650.5469,333.4531 650.5781,333.2656 650.5781,332.8438 L650.5781,331.4219 C650.5781,330.9844 650.5625,330.8594 650.4688,330.7031 C650.3125,330.4375 650.0313,330.2969 649.7344,330.2969 C649.4375,330.2969 649.2344,330.3906 649.0156,330.7031 L648.8438,330.625 Z " fill="#000000"/><text fill="#000000" font-family="sans-serif" font-size="12" lengthAdjust="spacing" textLength="80" x="660.5" y="339.1074">Administrator</text><line style="stroke:#A80036;stroke-width:1.5;" x1="632.5" x2="742.5" y1="350.9531" y2="350.9531"/><line style="stroke:#A80036;stroke-width:1.5;" x1="632.5" x2="742.5" y1="358.9531" y2="358.9531"/><!--MD5=[d342058c8fb6f80e9d50d673c6908241]
class Developer--><rect codeLine="19" fill="#FEFECE" filter="url(#f4dt2urpq9h0r)" height="48" id="Developer" style="stroke:#A80036;stroke-width:1.5;" width="96" x="778.5" y="318.9531"/><ellipse cx="793.5" cy="334.9531" fill="#ADD1B2" rx="11" ry="11" style="stroke:#A80036;stroke-width:1.0;"/><path d="M795.8438,330.625 C794.9063,330.1875 794.3125,330.0469 793.4375,330.0469 C790.8125,330.0469 788.8125,332.125 788.8125,334.8438 L788.8125,335.9688 C788.8125,338.5469 790.9219,340.4375 793.8125,340.4375 C795.0313,340.4375 796.1875,340.1406 796.9375,339.5938 C797.5156,339.1875 797.8438,338.7344 797.8438,338.3438 C797.8438,337.8906 797.4531,337.5 796.9844,337.5 C796.7656,337.5 796.5625,337.5781 796.375,337.7656 C795.9219,338.25 795.9219,338.25 795.7344,338.3438 C795.3125,338.6094 794.625,338.7344 793.8594,338.7344 C791.8125,338.7344 790.5156,337.6406 790.5156,335.9375 L790.5156,334.8438 C790.5156,333.0625 791.7656,331.75 793.5,331.75 C794.0781,331.75 794.6875,331.9063 795.1563,332.1563 C795.6406,332.4375 795.8125,332.6563 795.9063,333.0625 C795.9688,333.4688 796,333.5938 796.1406,333.7188 C796.2813,333.8594 796.5156,333.9688 796.7344,333.9688 C797,333.9688 797.2656,333.8281 797.4375,333.6094 C797.5469,333.4531 797.5781,333.2656 797.5781,332.8438 L797.5781,331.4219 C797.5781,330.9844 797.5625,330.8594 797.4688,330.7031 C797.3125,330.4375 797.0313,330.2969 796.7344,330.2969 C796.4375,330.2969 796.2344,330.3906 796.0156,330.7031 L795.8438,330.625 Z " fill="#000000"/><text fill="#000000" font-family="sans-serif" font-size="12" lengthAdjust="spacing" textLength="64" x="807.5" y="339.1074">Developer</text><line style="stroke:#A80036;stroke-width:1.5;" x1="779.5" x2="873.5" y1="350.9531" y2="350.9531"/><line style="stroke:#A80036;stroke-width:1.5;" x1="779.5" x2="873.5" y1="358.9531" y2="358.9531"/><!--MD5=[0b4e4b4980470ea387cc45de9bd14b5b]
class Application--><rect codeLine="21" fill="#FEFECE" filter="url(#f4dt2urpq9h0r)" height="86.4141" id="Application" style="stroke:#A80036;stroke-width:1.5;" width="98" x="777.5" y="152.9531"/><ellipse cx="792.5" cy="168.9531" fill="#ADD1B2" rx="11" ry="11" style="stroke:#A80036;stroke-width:1.0;"/><path d="M794.8438,164.625 C793.9063,164.1875 793.3125,164.0469 792.4375,164.0469 C789.8125,164.0469 787.8125,166.125 787.8125,168.8438 L787.8125,169.9688 C787.8125,172.5469 789.9219,174.4375 792.8125,174.4375 C794.0313,174.4375 795.1875,174.1406 795.9375,173.5938 C796.5156,173.1875 796.8438,172.7344 796.8438,172.3438 C796.8438,171.8906 796.4531,171.5 795.9844,171.5 C795.7656,171.5 795.5625,171.5781 795.375,171.7656 C794.9219,172.25 794.9219,172.25 794.7344,172.3438 C794.3125,172.6094 793.625,172.7344 792.8594,172.7344 C790.8125,172.7344 789.5156,171.6406 789.5156,169.9375 L789.5156,168.8438 C789.5156,167.0625 790.7656,165.75 792.5,165.75 C793.0781,165.75 793.6875,165.9063 794.1563,166.1563 C794.6406,166.4375 794.8125,166.6563 794.9063,167.0625 C794.9688,167.4688 795,167.5938 795.1406,167.7188 C795.2813,167.8594 795.5156,167.9688 795.7344,167.9688 C796,167.9688 796.2656,167.8281 796.4375,167.6094 C796.5469,167.4531 796.5781,167.2656 796.5781,166.8438 L796.5781,165.4219 C796.5781,164.9844 796.5625,164.8594 796.4688,164.7031 C796.3125,164.4375 796.0313,164.2969 795.7344,164.2969 C795.4375,164.2969 795.2344,164.3906 795.0156,164.7031 L794.8438,164.625 Z " fill="#000000"/><text fill="#000000" font-family="sans-serif" font-size="12" lengthAdjust="spacing" textLength="66" x="806.5" y="173.1074">Application</text><line style="stroke:#A80036;stroke-width:1.5;" x1="778.5" x2="874.5" y1="184.9531" y2="184.9531"/><text fill="#000000" font-family="sans-serif" font-size="11" lengthAdjust="spacing" textLength="33" x="783.5" y="199.1636">name</text><text fill="#000000" font-family="sans-serif" font-size="11" lengthAdjust="spacing" textLength="62" x="783.5" y="211.9683">description</text><text fill="#000000" font-family="sans-serif" font-size="11" lengthAdjust="spacing" textLength="52" x="783.5" y="224.7729">apiToken</text><line style="stroke:#A80036;stroke-width:1.5;" x1="778.5" x2="874.5" y1="231.3672" y2="231.3672"/><!--MD5=[deb4e1f6eb1e3c1256fdb830f96abfbb]
class Country--><rect codeLine="27" fill="#FEFECE" filter="url(#f4dt2urpq9h0r)" height="60.8047" id="Country" style="stroke:#A80036;stroke-width:1.5;" width="78" x="358.5" y="600.9531"/><ellipse cx="373.5" cy="616.9531" fill="#ADD1B2" rx="11" ry="11" style="stroke:#A80036;stroke-width:1.0;"/><path d="M375.8438,612.625 C374.9063,612.1875 374.3125,612.0469 373.4375,612.0469 C370.8125,612.0469 368.8125,614.125 368.8125,616.8438 L368.8125,617.9688 C368.8125,620.5469 370.9219,622.4375 373.8125,622.4375 C375.0313,622.4375 376.1875,622.1406 376.9375,621.5938 C377.5156,621.1875 377.8438,620.7344 377.8438,620.3438 C377.8438,619.8906 377.4531,619.5 376.9844,619.5 C376.7656,619.5 376.5625,619.5781 376.375,619.7656 C375.9219,620.25 375.9219,620.25 375.7344,620.3438 C375.3125,620.6094 374.625,620.7344 373.8594,620.7344 C371.8125,620.7344 370.5156,619.6406 370.5156,617.9375 L370.5156,616.8438 C370.5156,615.0625 371.7656,613.75 373.5,613.75 C374.0781,613.75 374.6875,613.9063 375.1563,614.1563 C375.6406,614.4375 375.8125,614.6563 375.9063,615.0625 C375.9688,615.4688 376,615.5938 376.1406,615.7188 C376.2813,615.8594 376.5156,615.9688 376.7344,615.9688 C377,615.9688 377.2656,615.8281 377.4375,615.6094 C377.5469,615.4531 377.5781,615.2656 377.5781,614.8438 L377.5781,613.4219 C377.5781,612.9844 377.5625,612.8594 377.4688,612.7031 C377.3125,612.4375 377.0313,612.2969 376.7344,612.2969 C376.4375,612.2969 376.2344,612.3906 376.0156,612.7031 L375.8438,612.625 Z " fill="#000000"/><text fill="#000000" font-family="sans-serif" font-size="12" lengthAdjust="spacing" textLength="46" x="387.5" y="621.1074">Country</text><line style="stroke:#A80036;stroke-width:1.5;" x1="359.5" x2="435.5" y1="632.9531" y2="632.9531"/><text fill="#000000" font-family="sans-serif" font-size="11" lengthAdjust="spacing" textLength="33" x="364.5" y="647.1636">name</text><line style="stroke:#A80036;stroke-width:1.5;" x1="359.5" x2="435.5" y1="653.7578" y2="653.7578"/><!--MD5=[d1eeb527b96f439f56c6bd12ac0dd707]
class Park--><rect codeLine="31" fill="#FEFECE" filter="url(#f4dt2urpq9h0r)" height="60.8047" id="Park" style="stroke:#A80036;stroke-width:1.5;" width="57" x="266" y="600.9531"/><ellipse cx="281" cy="616.9531" fill="#ADD1B2" rx="11" ry="11" style="stroke:#A80036;stroke-width:1.0;"/><path d="M283.3438,612.625 C282.4063,612.1875 281.8125,612.0469 280.9375,612.0469 C278.3125,612.0469 276.3125,614.125 276.3125,616.8438 L276.3125,617.9688 C276.3125,620.5469 278.4219,622.4375 281.3125,622.4375 C282.5313,622.4375 283.6875,622.1406 284.4375,621.5938 C285.0156,621.1875 285.3438,620.7344 285.3438,620.3438 C285.3438,619.8906 284.9531,619.5 284.4844,619.5 C284.2656,619.5 284.0625,619.5781 283.875,619.7656 C283.4219,620.25 283.4219,620.25 283.2344,620.3438 C282.8125,620.6094 282.125,620.7344 281.3594,620.7344 C279.3125,620.7344 278.0156,619.6406 278.0156,617.9375 L278.0156,616.8438 C278.0156,615.0625 279.2656,613.75 281,613.75 C281.5781,613.75 282.1875,613.9063 282.6563,614.1563 C283.1406,614.4375 283.3125,614.6563 283.4063,615.0625 C283.4688,615.4688 283.5,615.5938 283.6406,615.7188 C283.7813,615.8594 284.0156,615.9688 284.2344,615.9688 C284.5,615.9688 284.7656,615.8281 284.9375,615.6094 C285.0469,615.4531 285.0781,615.2656 285.0781,614.8438 L285.0781,613.4219 C285.0781,612.9844 285.0625,612.8594 284.9688,612.7031 C284.8125,612.4375 284.5313,612.2969 284.2344,612.2969 C283.9375,612.2969 283.7344,612.3906 283.5156,612.7031 L283.3438,612.625 Z " fill="#000000"/><text fill="#000000" font-family="sans-serif" font-size="12" lengthAdjust="spacing" textLength="25" x="295" y="621.1074">Park</text><line style="stroke:#A80036;stroke-width:1.5;" x1="267" x2="322" y1="632.9531" y2="632.9531"/><text fill="#000000" font-family="sans-serif" font-size="11" lengthAdjust="spacing" textLength="33" x="272" y="647.1636">name</text><line style="stroke:#A80036;stroke-width:1.5;" x1="267" x2="322" y1="653.7578" y2="653.7578"/><!--MD5=[ab50d96312d8d6384574b269de1f44e9]
class Characters--><rect codeLine="35" fill="#FEFECE" filter="url(#f4dt2urpq9h0r)" height="60.8047" id="Characters" style="stroke:#A80036;stroke-width:1.5;" width="97" x="7" y="462.9531"/><ellipse cx="22" cy="478.9531" fill="#ADD1B2" rx="11" ry="11" style="stroke:#A80036;stroke-width:1.0;"/><path d="M24.3438,474.625 C23.4063,474.1875 22.8125,474.0469 21.9375,474.0469 C19.3125,474.0469 17.3125,476.125 17.3125,478.8438 L17.3125,479.9688 C17.3125,482.5469 19.4219,484.4375 22.3125,484.4375 C23.5313,484.4375 24.6875,484.1406 25.4375,483.5938 C26.0156,483.1875 26.3438,482.7344 26.3438,482.3438 C26.3438,481.8906 25.9531,481.5 25.4844,481.5 C25.2656,481.5 25.0625,481.5781 24.875,481.7656 C24.4219,482.25 24.4219,482.25 24.2344,482.3438 C23.8125,482.6094 23.125,482.7344 22.3594,482.7344 C20.3125,482.7344 19.0156,481.6406 19.0156,479.9375 L19.0156,478.8438 C19.0156,477.0625 20.2656,475.75 22,475.75 C22.5781,475.75 23.1875,475.9063 23.6563,476.1563 C24.1406,476.4375 24.3125,476.6563 24.4063,477.0625 C24.4688,477.4688 24.5,477.5938 24.6406,477.7188 C24.7813,477.8594 25.0156,477.9688 25.2344,477.9688 C25.5,477.9688 25.7656,477.8281 25.9375,477.6094 C26.0469,477.4531 26.0781,477.2656 26.0781,476.8438 L26.0781,475.4219 C26.0781,474.9844 26.0625,474.8594 25.9688,474.7031 C25.8125,474.4375 25.5313,474.2969 25.2344,474.2969 C24.9375,474.2969 24.7344,474.3906 24.5156,474.7031 L24.3438,474.625 Z " fill="#000000"/><text fill="#000000" font-family="sans-serif" font-size="12" lengthAdjust="spacing" textLength="65" x="36" y="483.1074">Characters</text><line style="stroke:#A80036;stroke-width:1.5;" x1="8" x2="103" y1="494.9531" y2="494.9531"/><text fill="#000000" font-family="sans-serif" font-size="11" lengthAdjust="spacing" textLength="33" x="13" y="509.1636">name</text><line style="stroke:#A80036;stroke-width:1.5;" x1="8" x2="103" y1="515.7578" y2="515.7578"/><!--MD5=[ea42f72b5b0548643c34a52d360d0a6d]
class Attraction--><rect codeLine="39" fill="#FEFECE" filter="url(#f4dt2urpq9h0r)" height="60.8047" id="Attraction" style="stroke:#A80036;stroke-width:1.5;" width="89" x="139" y="462.9531"/><ellipse cx="154" cy="478.9531" fill="#ADD1B2" rx="11" ry="11" style="stroke:#A80036;stroke-width:1.0;"/><path d="M156.3438,474.625 C155.4063,474.1875 154.8125,474.0469 153.9375,474.0469 C151.3125,474.0469 149.3125,476.125 149.3125,478.8438 L149.3125,479.9688 C149.3125,482.5469 151.4219,484.4375 154.3125,484.4375 C155.5313,484.4375 156.6875,484.1406 157.4375,483.5938 C158.0156,483.1875 158.3438,482.7344 158.3438,482.3438 C158.3438,481.8906 157.9531,481.5 157.4844,481.5 C157.2656,481.5 157.0625,481.5781 156.875,481.7656 C156.4219,482.25 156.4219,482.25 156.2344,482.3438 C155.8125,482.6094 155.125,482.7344 154.3594,482.7344 C152.3125,482.7344 151.0156,481.6406 151.0156,479.9375 L151.0156,478.8438 C151.0156,477.0625 152.2656,475.75 154,475.75 C154.5781,475.75 155.1875,475.9063 155.6563,476.1563 C156.1406,476.4375 156.3125,476.6563 156.4063,477.0625 C156.4688,477.4688 156.5,477.5938 156.6406,477.7188 C156.7813,477.8594 157.0156,477.9688 157.2344,477.9688 C157.5,477.9688 157.7656,477.8281 157.9375,477.6094 C158.0469,477.4531 158.0781,477.2656 158.0781,476.8438 L158.0781,475.4219 C158.0781,474.9844 158.0625,474.8594 157.9688,474.7031 C157.8125,474.4375 157.5313,474.2969 157.2344,474.2969 C156.9375,474.2969 156.7344,474.3906 156.5156,474.7031 L156.3438,474.625 Z " fill="#000000"/><text fill="#000000" font-family="sans-serif" font-size="12" lengthAdjust="spacing" textLength="57" x="168" y="483.1074">Attraction</text><line style="stroke:#A80036;stroke-width:1.5;" x1="140" x2="227" y1="494.9531" y2="494.9531"/><text fill="#000000" font-family="sans-serif" font-size="11" lengthAdjust="spacing" textLength="33" x="145" y="509.1636">name</text><line style="stroke:#A80036;stroke-width:1.5;" x1="140" x2="227" y1="515.7578" y2="515.7578"/><!--MD5=[4296a1ab0576a383a1a509d52c22ebf0]
class Type--><rect codeLine="43" fill="#FEFECE" filter="url(#f4dt2urpq9h0r)" height="60.8047" id="Type" style="stroke:#A80036;stroke-width:1.5;" width="62" x="263.5" y="462.9531"/><ellipse cx="278.5" cy="478.9531" fill="#ADD1B2" rx="11" ry="11" style="stroke:#A80036;stroke-width:1.0;"/><path d="M280.8438,474.625 C279.9063,474.1875 279.3125,474.0469 278.4375,474.0469 C275.8125,474.0469 273.8125,476.125 273.8125,478.8438 L273.8125,479.9688 C273.8125,482.5469 275.9219,484.4375 278.8125,484.4375 C280.0313,484.4375 281.1875,484.1406 281.9375,483.5938 C282.5156,483.1875 282.8438,482.7344 282.8438,482.3438 C282.8438,481.8906 282.4531,481.5 281.9844,481.5 C281.7656,481.5 281.5625,481.5781 281.375,481.7656 C280.9219,482.25 280.9219,482.25 280.7344,482.3438 C280.3125,482.6094 279.625,482.7344 278.8594,482.7344 C276.8125,482.7344 275.5156,481.6406 275.5156,479.9375 L275.5156,478.8438 C275.5156,477.0625 276.7656,475.75 278.5,475.75 C279.0781,475.75 279.6875,475.9063 280.1563,476.1563 C280.6406,476.4375 280.8125,476.6563 280.9063,477.0625 C280.9688,477.4688 281,477.5938 281.1406,477.7188 C281.2813,477.8594 281.5156,477.9688 281.7344,477.9688 C282,477.9688 282.2656,477.8281 282.4375,477.6094 C282.5469,477.4531 282.5781,477.2656 282.5781,476.8438 L282.5781,475.4219 C282.5781,474.9844 282.5625,474.8594 282.4688,474.7031 C282.3125,474.4375 282.0313,474.2969 281.7344,474.2969 C281.4375,474.2969 281.2344,474.3906 281.0156,474.7031 L280.8438,474.625 Z " fill="#000000"/><text fill="#000000" font-family="sans-serif" font-size="12" lengthAdjust="spacing" textLength="30" x="292.5" y="483.1074">Type</text><line style="stroke:#A80036;stroke-width:1.5;" x1="264.5" x2="324.5" y1="494.9531" y2="494.9531"/><text fill="#000000" font-family="sans-serif" font-size="11" lengthAdjust="spacing" textLength="33" x="269.5" y="509.1636">name</text><line style="stroke:#A80036;stroke-width:1.5;" x1="264.5" x2="324.5" y1="515.7578" y2="515.7578"/><!--MD5=[dd6ce28cd78ac308772935dc050a9e14]
class Serie--><rect codeLine="47" fill="#FEFECE" filter="url(#f4dt2urpq9h0r)" height="60.8047" id="Serie" style="stroke:#A80036;stroke-width:1.5;" width="64" x="360.5" y="462.9531"/><ellipse cx="375.5" cy="478.9531" fill="#ADD1B2" rx="11" ry="11" style="stroke:#A80036;stroke-width:1.0;"/><path d="M377.8438,474.625 C376.9063,474.1875 376.3125,474.0469 375.4375,474.0469 C372.8125,474.0469 370.8125,476.125 370.8125,478.8438 L370.8125,479.9688 C370.8125,482.5469 372.9219,484.4375 375.8125,484.4375 C377.0313,484.4375 378.1875,484.1406 378.9375,483.5938 C379.5156,483.1875 379.8438,482.7344 379.8438,482.3438 C379.8438,481.8906 379.4531,481.5 378.9844,481.5 C378.7656,481.5 378.5625,481.5781 378.375,481.7656 C377.9219,482.25 377.9219,482.25 377.7344,482.3438 C377.3125,482.6094 376.625,482.7344 375.8594,482.7344 C373.8125,482.7344 372.5156,481.6406 372.5156,479.9375 L372.5156,478.8438 C372.5156,477.0625 373.7656,475.75 375.5,475.75 C376.0781,475.75 376.6875,475.9063 377.1563,476.1563 C377.6406,476.4375 377.8125,476.6563 377.9063,477.0625 C377.9688,477.4688 378,477.5938 378.1406,477.7188 C378.2813,477.8594 378.5156,477.9688 378.7344,477.9688 C379,477.9688 379.2656,477.8281 379.4375,477.6094 C379.5469,477.4531 379.5781,477.2656 379.5781,476.8438 L379.5781,475.4219 C379.5781,474.9844 379.5625,474.8594 379.4688,474.7031 C379.3125,474.4375 379.0313,474.2969 378.7344,474.2969 C378.4375,474.2969 378.2344,474.3906 378.0156,474.7031 L377.8438,474.625 Z " fill="#000000"/><text fill="#000000" font-family="sans-serif" font-size="12" lengthAdjust="spacing" textLength="32" x="389.5" y="483.1074">Serie</text><line style="stroke:#A80036;stroke-width:1.5;" x1="361.5" x2="423.5" y1="494.9531" y2="494.9531"/><text fill="#000000" font-family="sans-serif" font-size="11" lengthAdjust="spacing" textLength="33" x="366.5" y="509.1636">name</text><line style="stroke:#A80036;stroke-width:1.5;" x1="361.5" x2="423.5" y1="515.7578" y2="515.7578"/><!--MD5=[27749dde7d4a51d650384981402da9b7]
class Pins--><rect codeLine="51" fill="#FEFECE" filter="url(#f4dt2urpq9h0r)" height="86.4141" id="Pins" style="stroke:#A80036;stroke-width:1.5;" width="101" x="192" y="299.9531"/><ellipse cx="227.7" cy="315.9531" fill="#ADD1B2" rx="11" ry="11" style="stroke:#A80036;stroke-width:1.0;"/><path d="M230.0438,311.625 C229.1063,311.1875 228.5125,311.0469 227.6375,311.0469 C225.0125,311.0469 223.0125,313.125 223.0125,315.8438 L223.0125,316.9688 C223.0125,319.5469 225.1219,321.4375 228.0125,321.4375 C229.2313,321.4375 230.3875,321.1406 231.1375,320.5938 C231.7156,320.1875 232.0438,319.7344 232.0438,319.3438 C232.0438,318.8906 231.6531,318.5 231.1844,318.5 C230.9656,318.5 230.7625,318.5781 230.575,318.7656 C230.1219,319.25 230.1219,319.25 229.9344,319.3438 C229.5125,319.6094 228.825,319.7344 228.0594,319.7344 C226.0125,319.7344 224.7156,318.6406 224.7156,316.9375 L224.7156,315.8438 C224.7156,314.0625 225.9656,312.75 227.7,312.75 C228.2781,312.75 228.8875,312.9063 229.3563,313.1563 C229.8406,313.4375 230.0125,313.6563 230.1063,314.0625 C230.1688,314.4688 230.2,314.5938 230.3406,314.7188 C230.4813,314.8594 230.7156,314.9688 230.9344,314.9688 C231.2,314.9688 231.4656,314.8281 231.6375,314.6094 C231.7469,314.4531 231.7781,314.2656 231.7781,313.8438 L231.7781,312.4219 C231.7781,311.9844 231.7625,311.8594 231.6688,311.7031 C231.5125,311.4375 231.2313,311.2969 230.9344,311.2969 C230.6375,311.2969 230.4344,311.3906 230.2156,311.7031 L230.0438,311.625 Z " fill="#000000"/><text fill="#000000" font-family="sans-serif" font-size="12" lengthAdjust="spacing" textLength="23" x="246.3" y="320.1074">Pins</text><line style="stroke:#A80036;stroke-width:1.5;" x1="193" x2="292" y1="331.9531" y2="331.9531"/><text fill="#000000" font-family="sans-serif" font-size="11" lengthAdjust="spacing" textLength="33" x="198" y="346.1636">name</text><text fill="#000000" font-family="sans-serif" font-size="11" lengthAdjust="spacing" textLength="76" x="198" y="358.9683">release_date</text><text fill="#000000" font-family="sans-serif" font-size="11" lengthAdjust="spacing" textLength="89" x="198" y="371.7729">edition_number</text><line style="stroke:#A80036;stroke-width:1.5;" x1="193" x2="292" y1="378.3672" y2="378.3672"/><!--MD5=[29bf36229a7497d179eb70f8fa43aa31]
class Pins_Contributor--><rect codeLine="57" fill="#FEFECE" filter="url(#f4dt2urpq9h0r)" height="60.8047" id="Pins_Contributor" style="stroke:#A80036;stroke-width:1.5;" width="128" x="279.5" y="165.4531"/><ellipse cx="294.5" cy="181.4531" fill="#ADD1B2" rx="11" ry="11" style="stroke:#A80036;stroke-width:1.0;"/><path d="M296.8438,177.125 C295.9063,176.6875 295.3125,176.5469 294.4375,176.5469 C291.8125,176.5469 289.8125,178.625 289.8125,181.3438 L289.8125,182.4688 C289.8125,185.0469 291.9219,186.9375 294.8125,186.9375 C296.0313,186.9375 297.1875,186.6406 297.9375,186.0938 C298.5156,185.6875 298.8438,185.2344 298.8438,184.8438 C298.8438,184.3906 298.4531,184 297.9844,184 C297.7656,184 297.5625,184.0781 297.375,184.2656 C296.9219,184.75 296.9219,184.75 296.7344,184.8438 C296.3125,185.1094 295.625,185.2344 294.8594,185.2344 C292.8125,185.2344 291.5156,184.1406 291.5156,182.4375 L291.5156,181.3438 C291.5156,179.5625 292.7656,178.25 294.5,178.25 C295.0781,178.25 295.6875,178.4063 296.1563,178.6563 C296.6406,178.9375 296.8125,179.1563 296.9063,179.5625 C296.9688,179.9688 297,180.0938 297.1406,180.2188 C297.2813,180.3594 297.5156,180.4688 297.7344,180.4688 C298,180.4688 298.2656,180.3281 298.4375,180.1094 C298.5469,179.9531 298.5781,179.7656 298.5781,179.3438 L298.5781,177.9219 C298.5781,177.4844 298.5625,177.3594 298.4688,177.2031 C298.3125,176.9375 298.0313,176.7969 297.7344,176.7969 C297.4375,176.7969 297.2344,176.8906 297.0156,177.2031 L296.8438,177.125 Z " fill="#000000"/><text fill="#000000" font-family="sans-serif" font-size="12" lengthAdjust="spacing" textLength="96" x="308.5" y="185.6074">Pins_Contributor</text><line style="stroke:#A80036;stroke-width:1.5;" x1="280.5" x2="406.5" y1="197.4531" y2="197.4531"/><text fill="#000000" font-family="sans-serif" font-size="11" lengthAdjust="spacing" textLength="98" x="285.5" y="211.6636">contribution_date</text><line style="stroke:#A80036;stroke-width:1.5;" x1="280.5" x2="406.5" y1="218.2578" y2="218.2578"/><!--MD5=[c6d2804273d0d48a0cdb79b28c95a1ca]
class Serie_Contributor--><rect codeLine="61" fill="#FEFECE" filter="url(#f4dt2urpq9h0r)" height="60.8047" id="Serie_Contributor" style="stroke:#A80036;stroke-width:1.5;" width="137" x="482" y="165.4531"/><ellipse cx="497" cy="181.4531" fill="#ADD1B2" rx="11" ry="11" style="stroke:#A80036;stroke-width:1.0;"/><path d="M499.3438,177.125 C498.4063,176.6875 497.8125,176.5469 496.9375,176.5469 C494.3125,176.5469 492.3125,178.625 492.3125,181.3438 L492.3125,182.4688 C492.3125,185.0469 494.4219,186.9375 497.3125,186.9375 C498.5313,186.9375 499.6875,186.6406 500.4375,186.0938 C501.0156,185.6875 501.3438,185.2344 501.3438,184.8438 C501.3438,184.3906 500.9531,184 500.4844,184 C500.2656,184 500.0625,184.0781 499.875,184.2656 C499.4219,184.75 499.4219,184.75 499.2344,184.8438 C498.8125,185.1094 498.125,185.2344 497.3594,185.2344 C495.3125,185.2344 494.0156,184.1406 494.0156,182.4375 L494.0156,181.3438 C494.0156,179.5625 495.2656,178.25 497,178.25 C497.5781,178.25 498.1875,178.4063 498.6563,178.6563 C499.1406,178.9375 499.3125,179.1563 499.4063,179.5625 C499.4688,179.9688 499.5,180.0938 499.6406,180.2188 C499.7813,180.3594 500.0156,180.4688 500.2344,180.4688 C500.5,180.4688 500.7656,180.3281 500.9375,180.1094 C501.0469,179.9531 501.0781,179.7656 501.0781,179.3438 L501.0781,177.9219 C501.0781,177.4844 501.0625,177.3594 500.9688,177.2031 C500.8125,176.9375 500.5313,176.7969 500.2344,176.7969 C499.9375,176.7969 499.7344,176.8906 499.5156,177.2031 L499.3438,177.125 Z " fill="#000000"/><text fill="#000000" font-family="sans-serif" font-size="12" lengthAdjust="spacing" textLength="105" x="511" y="185.6074">Serie_Contributor</text><line style="stroke:#A80036;stroke-width:1.5;" x1="483" x2="618" y1="197.4531" y2="197.4531"/><text fill="#000000" font-family="sans-serif" font-size="11" lengthAdjust="spacing" textLength="98" x="488" y="211.6636">contribution_date</text><line style="stroke:#A80036;stroke-width:1.5;" x1="483" x2="618" y1="218.2578" y2="218.2578"/><ellipse cx="242.5" cy="195.9531" fill="#000000" rx="2" ry="2" style="stroke:none;stroke-width:1.0;"/><ellipse cx="444.5" cy="195.9531" fill="#000000" rx="2" ry="2" style="stroke:none;stroke-width:1.0;"/><!--MD5=[87e802f94dff5db0b14b612664619da8]
link User to Account--><path codeLine="66" d="M654.443,233.5431 C636.252,253.6781 613.594,278.7571 594.655,299.7211 " fill="none" id="User-Account" style="stroke:#A80036;stroke-width:1.0;"/><text fill="#000000" font-family="sans-serif" font-size="13" lengthAdjust="spacing" textLength="24" x="627.0064" y="237.891">1..1</text><text fill="#000000" font-family="sans-serif" font-size="13" lengthAdjust="spacing" textLength="24" x="574.66" y="288.9981">1..1</text><!--MD5=[24a1e1dc3e42ff9937aca848a908ec95]
link Contributor to User--><path codeLine="67" d="M494.068,74.7591 C533.966,93.2411 590.732,121.6731 636.5,152.9531 C637.059,153.3351 637.62,153.7221 638.182,154.1131 " fill="none" id="Contributor-to-User" style="stroke:#A80036;stroke-width:1.0;"/><polygon fill="none" points="642.614,148.6871,654.419,166.2841,634.217,159.8901,642.614,148.6871" style="stroke:#A80036;stroke-width:1.0;"/><!--MD5=[94a0520e7de81138624157893f40ce30]
reverse link User to Developer--><path codeLine="68" d="M734.84,246.3371 C758.363,270.8751 785.668,299.3591 804.318,318.8131 " fill="none" id="User-backto-Developer" style="stroke:#A80036;stroke-width:1.0;"/><polygon fill="none" points="729.581,250.9661,720.794,231.6841,739.687,241.2781,729.581,250.9661" style="stroke:#A80036;stroke-width:1.0;"/><!--MD5=[b4e501b81d36e0a0ad004b01a879159d]
reverse link User to Administrator--><path codeLine="69" d="M687.5,259.2971 C687.5,280.3751 687.5,302.6231 687.5,318.7201 " fill="none" id="User-backto-Administrator" style="stroke:#A80036;stroke-width:1.0;"/><polygon fill="none" points="680.5,259.2831,687.5,239.2831,694.5,259.2831,680.5,259.2831" style="stroke:#A80036;stroke-width:1.0;"/><!--MD5=[4bc58816a919fc3b51294ca7843c0002]
link Application to Developer--><path codeLine="71" d="M826.5,239.2831 C826.5,265.1961 826.5,297.3681 826.5,318.7201 " fill="none" id="Application-Developer" style="stroke:#A80036;stroke-width:1.0;"/><text fill="#000000" font-family="sans-serif" font-size="13" lengthAdjust="spacing" textLength="23" x="801.6672" y="259.4286">0..*</text><text fill="#000000" font-family="sans-serif" font-size="13" lengthAdjust="spacing" textLength="24" x="799.575" y="308.0683">1..1</text><!--MD5=[3878833616267b07f2007898c8d9f111]
link Park to Country--><path codeLine="73" d="M323.066,631.4531 C334.794,631.4531 346.521,631.4531 358.248,631.4531 " fill="none" id="Park-Country" style="stroke:#A80036;stroke-width:1.0;"/><text fill="#000000" font-family="sans-serif" font-size="13" lengthAdjust="spacing" textLength="23" x="330.954" y="627.0758">0..*</text><text fill="#000000" font-family="sans-serif" font-size="13" lengthAdjust="spacing" textLength="24" x="330.9272" y="645.605">1..1</text><!--MD5=[7bf1aee09bbbfdc82b8643de9d38f719]
link Attraction to Park--><path codeLine="75" d="M193.774,524.2231 C199.825,539.1801 208.471,557.0321 219.5,570.9531 C232.401,587.2378 250.585,601.8054 265.817,612.4502 " fill="none" id="Attraction-Park" style="stroke:#A80036;stroke-width:1.0;"/><polygon fill="#000000" points="227.6624,566.3924,224.2179,557.5275,219.6651,561.2452,227.6624,566.3924" style="stroke:#000000;stroke-width:1.0;"/><text fill="#000000" font-family="sans-serif" font-size="13" lengthAdjust="spacing" textLength="96" x="233.5" y="567.02">se trouve dans</text><text fill="#000000" font-family="sans-serif" font-size="13" lengthAdjust="spacing" textLength="23" x="170.5326" y="543.8567">0..*</text><text fill="#000000" font-family="sans-serif" font-size="13" lengthAdjust="spacing" textLength="24" x="234.0618" y="604.4963">1..1</text><!--MD5=[3a1e6f2044e981f229f200409a5e0792]
link Serie to Park--><path codeLine="77" d="M371.235,523.9631 C354.91,546.6181 332.46,577.7734 316.061,600.5311 " fill="none" id="Serie-Park" style="stroke:#A80036;stroke-width:1.0;"/><polygon fill="#000000" points="351.5769,566.5761,359.2492,560.9559,354.4805,557.5196,351.5769,566.5761" style="stroke:#000000;stroke-width:1.0;"/><text fill="#000000" font-family="sans-serif" font-size="13" lengthAdjust="spacing" textLength="95" x="363.5" y="567.02">est sortie dans</text><text fill="#000000" font-family="sans-serif" font-size="13" lengthAdjust="spacing" textLength="23" x="341.4772" y="543.9034">0..*</text><text fill="#000000" font-family="sans-serif" font-size="13" lengthAdjust="spacing" textLength="24" x="294.033" y="589.7073">1..1</text><!--MD5=[0c71defb6e1f9bf6d7ec718c131433ab]
link Pins to Type--><path codeLine="79" d="M260.168,385.9691 C264.072,395.7471 268.064,406.1621 271.5,415.9531 C276.873,431.2641 282.139,448.5591 286.273,462.8261 " fill="none" id="Pins-Type" style="stroke:#A80036;stroke-width:1.0;"/><text fill="#000000" font-family="sans-serif" font-size="13" lengthAdjust="spacing" textLength="23" x="238.1896" y="406.3794">0..*</text><text fill="#000000" font-family="sans-serif" font-size="13" lengthAdjust="spacing" textLength="24" x="258.1012" y="452.0632">1..1</text><!--MD5=[86f2f23e7359a7ed550869de7b8fbe95]
link Pins to Serie--><path codeLine="80" d="M285.083,386.1101 C309.854,410.6341 340.469,440.9421 362.669,462.9201 " fill="none" id="Pins-Serie" style="stroke:#A80036;stroke-width:1.0;"/><polygon fill="#000000" points="340.0533,428.0373,335.693,419.5851,331.5577,423.7622,340.0533,428.0373" style="stroke:#000000;stroke-width:1.0;"/><text fill="#000000" font-family="sans-serif" font-size="13" lengthAdjust="spacing" textLength="55" x="345.5" y="429.02">est dans</text><text fill="#000000" font-family="sans-serif" font-size="13" lengthAdjust="spacing" textLength="23" x="267.2311" y="406.5438">0..*</text><text fill="#000000" font-family="sans-serif" font-size="13" lengthAdjust="spacing" textLength="24" x="329.5185" y="451.7032">1..1</text><!--MD5=[986294f6dc0f8ebe356464af4c1f1f05]
link Pins to Characters--><path codeLine="81" d="M191.874,355.4601 C156.837,365.8421 111.472,384.4531 82.5,415.9531 C70.6774,428.8071 63.9732,447.1571 60.2028,462.6631 " fill="none" id="Pins-Characters" style="stroke:#A80036;stroke-width:1.0;"/><polygon fill="#000000" points="83.6226,427.6764,92.4924,424.2446,88.7813,419.6865,83.6226,427.6764" style="stroke:#000000;stroke-width:1.0;"/><text fill="#000000" font-family="sans-serif" font-size="13" lengthAdjust="spacing" textLength="70" x="96.5" y="429.02">représente</text><text fill="#000000" font-family="sans-serif" font-size="13" lengthAdjust="spacing" textLength="23" x="160.9141" y="353.1505">0..*</text><text fill="#000000" font-family="sans-serif" font-size="13" lengthAdjust="spacing" textLength="23" x="35.8009" y="451.8665">0..*</text><!--MD5=[e71e348d5370f6b21887abdbe46fdbef]
link Pins to Attraction--><path codeLine="82" d="M196.187,386.2131 C188.952,395.2601 182.542,405.3231 178.5,415.9531 C172.871,430.7581 173.556,448.3291 175.901,462.8951 " fill="none" id="Pins-Attraction" style="stroke:#A80036;stroke-width:1.0;"/><polygon fill="#000000" points="182.2213,429.3532,187.3757,421.3606,181.6933,419.8573,182.2213,429.3532" style="stroke:#000000;stroke-width:1.0;"/><text fill="#000000" font-family="sans-serif" font-size="13" lengthAdjust="spacing" textLength="70" x="192.5" y="429.02">représente</text><text fill="#000000" font-family="sans-serif" font-size="13" lengthAdjust="spacing" textLength="23" x="163.9731" y="406.3475">0..*</text><text fill="#000000" font-family="sans-serif" font-size="13" lengthAdjust="spacing" textLength="23" x="148.7231" y="451.6727">0..*</text><!--MD5=[c852b61dda5de771f017020192120db0]
link Contributor to apoint121591--><path d="M394.732,69.1511 C353.912,84.7481 297.224,112.0501 261.5,152.9531 C249.707,166.4551 244.005,188.4851 242.764,193.7811 " fill="none" id="Contributor-apoint121591" style="stroke:#A80036;stroke-width:1.0;"/><polygon fill="#000000" points="319.6339,117.6902,328.4914,114.2269,324.7641,109.682,319.6339,117.6902" style="stroke:#000000;stroke-width:1.0;"/><text fill="#000000" font-family="sans-serif" font-size="13" lengthAdjust="spacing" textLength="85" x="332.5" y="119.02">A contribué à</text><text fill="#000000" font-family="sans-serif" font-size="13" lengthAdjust="spacing" textLength="23" x="363.882" y="67.4691">0..*</text><!--MD5=[800b78f860ced9a9f5b2e54ee081719b]
link apoint121591 to Pins--><path d="M242.5,198.2071 C242.5,207.0361 242.5,260.6641 242.5,299.8401 " fill="none" id="apoint121591-Pins" style="stroke:#A80036;stroke-width:1.0;"/><text fill="#000000" font-family="sans-serif" font-size="13" lengthAdjust="spacing" textLength="23" x="217.6672" y="288.8182">1..*</text><!--MD5=[6471ab1df87ab847060aa43b34684f05]
link apoint121591 to Pins_Contributor--><path d="M244.867,195.9531 C256.297,195.9531 267.727,195.9531 279.158,195.9531 " fill="none" id="apoint121591-Pins_Contributor" style="stroke:#A80036;stroke-width:1.0;stroke-dasharray:7.0,7.0;"/><!--MD5=[715da73d872be1639f9cf6a3f9cdef79]
link Contributor to apoint121597--><path d="M444.5,76.0841 C444.5,113.4921 444.5,184.0851 444.5,193.8271 " fill="none" id="Contributor-apoint121597" style="stroke:#A80036;stroke-width:1.0;"/><polygon fill="#000000" points="449.5,119.5195,452.4389,110.4744,446.5611,110.4744,449.5,119.5195" style="stroke:#000000;stroke-width:1.0;"/><text fill="#000000" font-family="sans-serif" font-size="13" lengthAdjust="spacing" textLength="85" x="458.5" y="119.02">A contribué à</text><text fill="#000000" font-family="sans-serif" font-size="13" lengthAdjust="spacing" textLength="23" x="418.6969" y="95.8773">0..*</text><!--MD5=[a1a30d8121d6c4ce256b481d274829fa]
link apoint121597 to Serie--><path d="M444.353,198.4651 C442.886,213.3851 430.492,335.7861 409.5,432.9531 C407.39,442.7191 404.57,453.2421 401.833,462.6831 " fill="none" id="apoint121597-Serie" style="stroke:#A80036;stroke-width:1.0;"/><text fill="#000000" font-family="sans-serif" font-size="13" lengthAdjust="spacing" textLength="23" x="378.3861" y="451.8907">1..*</text><!--MD5=[abfc0d765e3cd4dfcadfd76beb40cc57]
link apoint121597 to Serie_Contributor--><path d="M446.57,195.9531 C458.344,195.9531 470.117,195.9531 481.89,195.9531 " fill="none" id="apoint121597-Serie_Contributor" style="stroke:#A80036;stroke-width:1.0;stroke-dasharray:7.0,7.0;"/><!--MD5=[fe17ca2992838cb2912832e7ef8a604e]
@startuml
title Modélisation - Disney Pins DataBase

class User {
    pseudo
    name
    firstname
}

class Account {
    mail
    password
    enable
}

class Contributor

class Administrator

class Developer

class Application {
    name
    description
    apiToken
}

class Country {
    name
}

class Park {
    name
}

class Characters {
    name
}

class Attraction {
    name
}

class Type {
    name
}

Class Serie {
    name
}

Class Pins {
    name
    release_date
    edition_number
}

Class Pins_Contributor {
    contribution_date
}

Class Serie_Contributor{
    contribution_date
}


User "1..1"- -"1..1" Account
Contributor - -|> User
User <|- - Developer
User <|- - Administrator

Application "0..*"- -"1..1" Developer

Park "0..*"-"1..1" Country

Attraction "0..*"- -"1..1" Park : se trouve dans >

Serie "0..*"-"1..1" Park : est sortie dans >

Pins "0..*"- -"1..1" Type
Pins "0..*"- -"1..1" Serie : est dans >
Pins "0..*"- -"0..*" Characters : représente >
Pins "0..*"- -"0..*" Attraction : représente >

Contributor "0..*"- -"1..*" Pins : A contribué à >
(Pins, Contributor) .. Pins_Contributor

Contributor "0..*"- -"1..*" Serie : A contribué à >
(Serie, Contributor) .. Serie_Contributor
@enduml

PlantUML version 1.2021.6beta4(Unknown compile time)
(GPL source distribution)
Java Runtime: Java(TM) SE Runtime Environment
JVM: Java HotSpot(TM) 64-Bit Server VM
Default Encoding: UTF-8
Language: en
Country: US
--></g></svg>